<svg xmlns="http://www.w3.org/2000/svg" viewBox="0 0 23.94 18.48"><defs><style>.cls-1{fill:#f0a041;}.cls-1,.cls-2{fill-rule:evenodd;}</style></defs><title>Amazon</title><g id="Camada_2" data-name="Camada 2"><g id="Camada_1-2" data-name="Camada 1"><path class="cls-1" d="M21.64,15.52a17.15,17.15,0,0,1-9.7,3A17.52,17.52,0,0,1,.11,14c-.25-.22,0-.53.26-.35a23.87,23.87,0,0,0,11.85,3.14,23.46,23.46,0,0,0,9-1.85C21.7,14.72,22.07,15.2,21.64,15.52Z"/><path class="cls-1" d="M22.73,14.28c-.34-.43-2.22-.21-3.06-.1-.26,0-.3-.2-.07-.36,1.5-1.05,4-.75,4.24-.4s-.07,2.82-1.48,4c-.21.18-.42.08-.32-.15C22.35,16.48,23.06,14.71,22.73,14.28Z"/><path class="cls-2" d="M13.48,8.34A5.16,5.16,0,0,1,13,11.11a2.14,2.14,0,0,1-1.81,1.18c-1,0-1.59-.76-1.59-1.89,0-2.22,2-2.63,3.89-2.63Zm2.63,6.36a.54.54,0,0,1-.62.07A6.62,6.62,0,0,1,14,13a5.18,5.18,0,0,1-4.31,1.89,3.7,3.7,0,0,1-3.91-4.07A4.42,4.42,0,0,1,8.57,6.59a17.69,17.69,0,0,1,4.91-.91V5.34a3.31,3.31,0,0,0-.32-1.89,1.75,1.75,0,0,0-1.46-.68A2,2,0,0,0,9.6,4.34a.56.56,0,0,1-.46.48L6.61,4.54A.46.46,0,0,1,6.22,4C6.8.93,9.58,0,12.06,0A5.92,5.92,0,0,1,16,1.3c1.27,1.19,1.15,2.77,1.15,4.49V9.86a3.54,3.54,0,0,0,1,2.42.51.51,0,0,1,0,.7c-.53.44-1.48,1.27-2,1.73Z"/></g></g></svg>