<svg xmlns="http://www.w3.org/2000/svg" width="19.424" height="16.293" viewBox="0 0 19.424 16.293">
  <g id="Grupo_345" data-name="Grupo 345" transform="translate(0 -0.152)">
    <rect id="Retângulo_792" data-name="Retângulo 792" width="19.424" height="16.293" rx="5" transform="translate(0 0.152)" fill="#0181c7"/>
    <g id="SlQ0N0.tif" transform="translate(2 4.152)">
      <g id="Grupo_344" data-name="Grupo 344">
        <path id="Caminho_989" data-name="Caminho 989" d="M357.209-373.073l.509-.858q.741-1.254,1.483-2.508a.664.664,0,0,1,.629-.359c.289.007.579,0,.867.006a.418.418,0,0,1,.41.323.918.918,0,0,1,.032.184q.058.718.115,1.436c.033.414.065.83.1,1.244s.068.829.1,1.243q.044.545.086,1.092t.089,1.1a1,1,0,0,1,0,.239.377.377,0,0,1-.4.335q-.595.009-1.19,0a.417.417,0,0,1-.432-.425c-.019-.335-.032-.671-.047-1.007q-.034-.773-.067-1.546-.02-.471-.039-.942a.948.948,0,0,0-.019-.174l-.029.05q-.649,1.112-1.3,2.224a.672.672,0,0,1-.325.315.661.661,0,0,1-.24.047c-.266,0-.531.011-.8,0a.592.592,0,0,1-.509-.326l-.908-1.637-.261-.471-.033-.056c-.013.2-.025.376-.036.557q-.04.628-.079,1.257c-.021.341-.041.683-.063,1.023-.014.234-.028.468-.047.7a.428.428,0,0,1-.435.414q-.568.01-1.137,0a.379.379,0,0,1-.4-.415c0-.179.024-.358.038-.537.025-.31.051-.618.077-.928l.09-1.086c.025-.305.049-.611.074-.917.029-.357.06-.716.089-1.074.025-.3.049-.607.075-.91s.039-.62.082-.927a.432.432,0,0,1,.459-.4q.483-.007.967,0a.61.61,0,0,1,.555.348q.911,1.659,1.825,3.316Z" transform="translate(-352.844 376.799)" fill="#fff"/>
        <path id="Caminho_990" data-name="Caminho 990" d="M368.722-374.174v-2.074a.876.876,0,0,1,.017-.2.424.424,0,0,1,.4-.347c.15-.008.3,0,.451-.005h.709a.748.748,0,0,1,.2.02.431.431,0,0,1,.322.389c0,.052.007.105.007.158q0,1.828,0,3.656a1.542,1.542,0,0,0,.055.463.835.835,0,0,0,.731.6,1.91,1.91,0,0,0,.31.021h1.881a.686.686,0,0,1,.191.021.421.421,0,0,1,.323.425,9.386,9.386,0,0,1,0,1.048.426.426,0,0,1-.414.4l-.088,0c-.846,0-1.692,0-2.537,0a2.77,2.77,0,0,1-1.4-.365,2.22,2.22,0,0,1-.988-1.22,3.351,3.351,0,0,1-.172-1.122Q368.721-373.239,368.722-374.174Z" transform="translate(-359.198 376.799)" fill="#fff"/>
      </g>
    </g>
  </g>
</svg>
