<svg xmlns="http://www.w3.org/2000/svg" viewBox="0 0 23.99 16.66"><defs><style>.cls-1{fill:#283076;}.cls-2{fill:#f2d608;}.cls-3{fill:#fff;}</style></defs><title>Mercado livre</title><g id="Camada_2" data-name="Camada 2"><g id="Camada_1-2" data-name="Camada 1"><path class="cls-1" d="M24,8.33c0,4.6-5.37,8.33-12,8.33S0,12.93,0,8.33,5.37,0,12,0,24,3.73,24,8.33Z"/><path class="cls-2" d="M23.42,7.74c0,4.1-5.13,7.42-11.46,7.42S.51,11.84.51,7.74,5.64.32,12,.32,23.42,3.64,23.42,7.74Z"/><path class="cls-1" d="M23.56,7.31l0-.17A6.45,6.45,0,0,0,21,3l-.11-.08L20.8,3a7,7,0,0,1-6.51.14c-3.13-1.39-4.67.22-4.73.29l-.36.37a16.82,16.82,0,0,0-2.61.18,9.66,9.66,0,0,1-3.4-1.1l-.11-.06L3,2.85A6.43,6.43,0,0,0,.3,7.27H.5l0,.2A13.72,13.72,0,0,1,5.23,9.14l0,0a1,1,0,0,0-.07.38,1.17,1.17,0,0,0,1.17,1.18h.12a1.19,1.19,0,0,0,.69.83,1.11,1.11,0,0,0,.84,0,1.24,1.24,0,0,0,.7.78,1.27,1.27,0,0,0,.9,0,1.29,1.29,0,0,0,1.24.9,1.31,1.31,0,0,0,.91-.37,2.6,2.6,0,0,0,1.15.31,1.2,1.2,0,0,0,.9-.36c.53,0,1.42-.17,1.64-.91A1.64,1.64,0,0,0,17,10.66a1.79,1.79,0,0,0,1.13-.43A1.07,1.07,0,0,0,18.37,9a31.5,31.5,0,0,1,5-1.63Z"/><path class="cls-3" d="M10,12l0-.31-.27.16a.9.9,0,0,1-.79.09.92.92,0,0,1-.52-.73l0-.29-.25.15a.79.79,0,0,1-.72.1.86.86,0,0,1-.48-.72l0-.24-.23.07a.93.93,0,0,1-.22,0,.77.77,0,0,1-.77-.78.8.8,0,0,1,.06-.3l0-.07A.71.71,0,0,1,6,8.88H6l.15-.06h0a.63.63,0,0,1,.19,0A.79.79,0,0,1,7,9.16l.12.21.18-.15A.87.87,0,0,1,8.2,9a.79.79,0,0,1,.45.57l.07.28L9,9.7a.93.93,0,0,1,.89-.16,1.08,1.08,0,0,1,.51,1.27l-.06.32.31-.09a.85.85,0,0,1,.25,0,.91.91,0,0,1,.91.91.88.88,0,0,1,0,.16s0,.06,0,.08a.19.19,0,0,0,0,.07,1.17,1.17,0,0,0-.05.11h0l-.08.13h0a.9.9,0,0,1-.69.33A.91.91,0,0,1,10,12Z"/><path class="cls-3" d="M17.88,10a1.45,1.45,0,0,1-.86.3L15,8.44c-.08-.08-.18-.13-.25,0s0,.21.08.29l1.8,1.79a1.25,1.25,0,0,1-1.27,1l-1.25-1.29c-.07-.08-.18-.16-.26-.09s0,.19.08.27l1.11,1.35c-.14.57-.85.66-1.18.67l-1.2-1.25c-.07-.08-.17-.15-.25-.08s0,.2.06.28l1,1.2c-.44.42-1.24.1-1.49,0l0,0a1,1,0,0,0,0-.1.6.6,0,0,0,.06-.19.09.09,0,0,0,0,0,.93.93,0,0,0,0-.23,1.3,1.3,0,0,0-1.37-1.31A1.42,1.42,0,0,0,10,9.17,1.25,1.25,0,0,0,9,9.24l-.1-.17v0L8.8,9a1.1,1.1,0,0,0-.45-.35,1.19,1.19,0,0,0-1.09.13,1.29,1.29,0,0,0-.17-.16h0L7,8.55a1.14,1.14,0,0,0-.6-.18l-.21,0h0L6,8.45l-.06,0-.15.08-.07,0s0,0-.07.06l-.12.11,0,0,0,0A14.2,14.2,0,0,0,1,7.16c-.08,0-.32,0-.4,0a6.23,6.23,0,0,1,2.39-4l.35.16a9.3,9.3,0,0,0,3.29,1h0c.67-.09,1.68-.19,2.24-.2L7.3,5.73l.08.14a1.23,1.23,0,0,0,1.13.58,3.17,3.17,0,0,0,1.2-.28l0,0,1.44-1L11.41,5a1.13,1.13,0,0,1,1.4,0s3.44,2.71,4.67,3.74l.47.37A.67.67,0,0,1,17.88,10Z"/><path class="cls-3" d="M18.1,8.68l-.36-.29c-1.24-1-4.65-3.71-4.67-3.73a1.53,1.53,0,0,0-1.88,0L11,4.83l.11.17L11,4.83l-1.44,1c-.13.06-1.21.51-1.71,0l1.62-1.7.42-.42s1.41-1.48,4.27-.2a7.53,7.53,0,0,0,6.29.14l.69-.34A6.2,6.2,0,0,1,23.36,7,29.45,29.45,0,0,0,18.1,8.68Z"/></g></g></svg>