<svg xmlns="http://www.w3.org/2000/svg" viewBox="0 0 23.81 17.21"><defs><style>.cls-1{fill:#2c3357;}</style></defs><title>ícone novo nuvemshop</title><g id="Camada_2" data-name="Camada 2"><g id="Camada_1-2" data-name="Camada 1"><path class="cls-1" d="M23.63,7A8.21,8.21,0,0,0,17.89.47,8.24,8.24,0,0,0,9.45,2.28.34.34,0,0,1,9,2.37,6.42,6.42,0,0,0,6.7,1.93a6.13,6.13,0,0,0-1.29.12A6.68,6.68,0,1,0,9,14.88a.37.37,0,0,1,.44.08A8.35,8.35,0,0,0,16,17.17,8.56,8.56,0,0,0,23.63,7ZM14.8,15.28a6.7,6.7,0,0,1-6.21-6.1c0-.56,0-.56-.6-.56-.35,0-.7,0-1,0s-.31.06-.3.31a8.6,8.6,0,0,0,1.17,4l.14.25A4.62,4.62,0,0,1,3,11.64,4.53,4.53,0,0,1,2.43,6.5,4.56,4.56,0,0,1,6.92,3.86,4.74,4.74,0,0,1,11.4,8.17c0,.46,0,.46.49.46s.75,0,1.13,0,.33,0,.31-.31a6.56,6.56,0,0,0-2.12-4.59c-.2-.19-.23-.26,0-.44a6.67,6.67,0,1,1,3.59,12Z"/></g></g></svg>