<?xml version="1.0" encoding="UTF-8"?><svg id="Camada_2" xmlns="http://www.w3.org/2000/svg" viewBox="0 0 22.26 22.24"><defs><style>.cls-1{fill:#010101;}.cls-2{fill:#fefefe;}</style></defs><g id="Camada_2-2"><g id="IHvEHp"><g><path class="cls-1" d="M.02,11.11C.02,9.05-.01,6.99,.03,4.93,.06,3.28,.7,1.9,2.07,.92,2.94,.31,3.93,.03,4.97,.03c4.12-.02,8.23-.05,12.35,0,2.76,.04,4.6,1.84,4.88,4.58,.05,.45,.06,.9,.06,1.35,0,3.65,.01,7.3-.01,10.95-.01,1.48-.39,2.84-1.51,3.91-.71,.67-1.53,1.09-2.49,1.25-.59,.1-1.19,.16-1.8,.16-3.59,0-7.19,0-10.78,0-.92,0-1.84-.07-2.7-.45C.94,20.89,.06,19.25,.02,17.12c-.04-2,0-4.01,0-6.01h0Z"/><path class="cls-2" d="M11.04,17.67c-1.64,0-3.16-.34-4.55-1.22-.27-.17-.32-.27-.05-.48,.33-.26,.64-.56,.94-.86,.16-.16,.29-.15,.46-.03,1.04,.7,2.19,.97,3.43,.95,.65-.01,1.25-.19,1.74-.62,.79-.68,.77-1.77-.05-2.42-.77-.61-1.71-.85-2.61-1.17-.86-.3-1.71-.6-2.47-1.1-2.2-1.45-1.99-4.44,.44-5.57,2.23-1.04,4.46-.75,6.59,.41,.27,.14,.26,.28,.02,.44-.05,.03-.08,.07-.12,.11-.3,.28-.57,.65-.92,.8-.4,.16-.7-.32-1.08-.44-1.18-.37-2.36-.57-3.48,.17-1.05,.7-1.06,1.95-.03,2.7,.62,.45,1.33,.69,2.05,.94,.91,.31,1.82,.6,2.66,1.07,1.47,.84,2.12,2.25,1.67,3.73-.32,1.06-1.12,1.69-2.09,2.14-.81,.37-1.68,.5-2.56,.46Z"/></g></g></g></svg>