<svg xmlns="http://www.w3.org/2000/svg" viewBox="0 0 20.68 23.27"><defs><style>.cls-1{fill:#ea501f;}.cls-2{fill:#fff;}</style></defs><g id="Camada_2" data-name="Camada 2"><g id="Camada_1-2" data-name="Camada 1"><path class="cls-1" d="M1,6.49H5.72A10.13,10.13,0,0,1,7,2.36,4.08,4.08,0,0,1,10.35,0a4.13,4.13,0,0,1,3.4,2.36A10.24,10.24,0,0,1,15,6.49h4.7a1,1,0,0,1,1,1l-.94,13.16a2.55,2.55,0,0,1-2.66,2.6H3.61A2.57,2.57,0,0,1,1,20.67L0,7.51a1,1,0,0,1,1-1Zm5.89,0h6.88A8.84,8.84,0,0,0,12.72,3a3,3,0,0,0-2.37-1.78A3,3,0,0,0,8,3,8.79,8.79,0,0,0,6.9,6.49Z"/><path class="cls-2" d="M6.93,18.65a.48.48,0,0,1,.53-.79c.14.1.29.19.44.28a5.9,5.9,0,0,0,3,1,2,2,0,0,0,1.77-.87h0l.06-.08a2.6,2.6,0,0,0,.25-.57,1.75,1.75,0,0,0-.06-1.15,2.42,2.42,0,0,0-1-1h0a4.85,4.85,0,0,0-1.27-.53,5.09,5.09,0,0,1-2.75-1.56,2.41,2.41,0,0,1,0-2.77,2.67,2.67,0,0,1,2.25-1.27,5.87,5.87,0,0,1,3.07.7.48.48,0,0,1-.44.85,4.83,4.83,0,0,0-2.56-.6A1.75,1.75,0,0,0,8.7,11a1.54,1.54,0,0,0-.07,1.74A4.24,4.24,0,0,0,10.88,14a6.1,6.1,0,0,1,1.5.63h0a3.36,3.36,0,0,1,1.38,1.49,2.63,2.63,0,0,1,.11,1.79,2.71,2.71,0,0,1-.36.8l-.08.14h0a3,3,0,0,1-2.56,1.28A6.85,6.85,0,0,1,7.41,19C7.26,18.87,7.1,18.77,6.93,18.65Z"/></g></g></svg>